<?xml version="1.0" standalone="no"?>
<!DOCTYPE svg PUBLIC "-//W3C//DTD SVG 20010904//EN"
 "http://www.w3.org/TR/2001/REC-SVG-20010904/DTD/svg10.dtd">
<svg version="1.0" xmlns="http://www.w3.org/2000/svg"
 width="214.000000pt" height="214.000000pt" viewBox="0 0 214.000000 214.000000"
 preserveAspectRatio="xMidYMid meet">
<metadata>
Created by potrace 1.14, written by Peter Selinger 2001-2017
</metadata>
<g transform="translate(0.000000,214.000000) scale(0.100000,-0.100000)"
fill="#000000" stroke="none">
<path d="M1397 1604 c-1 -1 -34 -4 -74 -7 -134 -10 -153 -26 -449 -378 l-81
-95 -23 60 c-13 33 -45 98 -72 145 -58 100 -67 131 -44 166 33 50 9 105 -46
105 -19 0 -43 -21 -105 -92 -190 -222 -283 -340 -283 -358 0 -27 35 -60 63
-60 25 0 58 32 176 173 71 85 90 100 92 75 0 -7 14 -33 29 -58 86 -134 102
-209 57 -261 -46 -54 -114 -64 -180 -29 -20 11 -47 20 -60 20 -50 0 -76 -70
-39 -103 54 -49 169 -73 257 -52 98 23 169 77 318 243 l111 124 9 -32 c13 -51
54 -108 141 -196 106 -108 115 -120 130 -163 33 -93 -31 -188 -130 -193 -61
-2 -91 11 -132 58 -47 55 -75 62 -109 28 -29 -29 -26 -58 13 -109 96 -126 299
-139 414 -27 28 28 242 277 430 502 58 69 108 127 111 130 17 14 29 52 23 74
-6 26 -53 50 -79 39 -12 -4 -275 -308 -396 -456 -15 -19 -16 -18 -34 19 -9 22
-33 58 -52 82 -31 37 -32 43 -16 48 157 49 246 171 247 336 0 45 -5 82 -12 90
-15 18 -6 28 24 28 24 0 54 34 54 61 0 9 -8 27 -18 39 -16 20 -27 22 -141 23
-67 1 -123 1 -124 1z m43 -144 c55 -29 66 -133 23 -212 -74 -136 -271 -139
-295 -5 -12 65 35 182 84 208 52 28 145 32 188 9z"/>
</g>
</svg>
